# xmcd
#
# Track frame offsets: 
#        150
#        17688
#        30068
#        44275
#        56793
#        70443
#        88040
#        99970
#        112595
#        132185
#        149950
#
# Disc length: 2157 seconds
#
# Revision: 3
# Processed by: cddbd v1.5.2PL0 Copyright (c) Steve Scherf et al.
# Submitted via: ExactAudioCopy v0.99pb4
#
DISCID=8808730b,8e086b0b
DTITLE=Paladins - The Paladins
DYEAR=1987
DGENRE=Blues
TTITLE0=Hold On
TTITLE1=Make It
TTITLE2=Honky Tonk All Night
TTITLE3=Let's Go
TTITLE4=Lucky Man
TTITLE5=Lover's Rock
TTITLE6=Daddy Yar
TTITLE7=Come On Home
TTITLE8=Bad Case Of Love
TTITLE9=Let'er Roll
TTITLE10=Slow Down
EXTD=
EXTT0=
EXTT1=
EXTT2=
EXTT3=
EXTT4=
EXTT5=
EXTT6=
EXTT7=
EXTT8=
EXTT9=
EXTT10=
PLAYORDER=
